{"title":"BBC.South.Pacific.1of6.HDTV.720p.Legendado.PT-BR.mkv","uid":9134613,"size":1641975536,"categoryP":"video","categoryS":"hd___tv_shows","magnet":"?xt=urn:btih:4ac141b12f5e0ace0d7639dd98c62e74656dac98&amp;dn=BBC.South.Pacific.1of6.HDTV.720p.Legendado.PT-BR.mkv&amp;tr=udp%3A%2F%2Ftracker.openbittorrent.com%3A80&amp;tr=udp%3A%2F%2Fopen.demonii.com%3A1337&amp;tr=udp%3A%2F%2Ftracker.coppersurfer.tk%3A6969&amp;tr=udp%3A%2F%2Fexodus.desync.com%3A6969","seeders":0,"leechers":1,"uploader":"sphinxsix","files":1,"time":1383392374,"description":"Audio: English\nLegendas/subtitles: Portugues (hardsubed)\n\n\nVideo\nID                             : 1\nFormat                         : AVC\nFormat/Info                    : Advanced Video Codec\nFormat profile                 : &lt;a class=&quot;__cf_email__&quot; href=&quot;/cdn-cgi/l/email-protection&quot; data-cfemail=&quot;0b43626c634b47382539&quot;&gt;[email&amp;#160;protected]&lt;/a&gt;&lt;script cf-hash='f9e31' type=&quot;text/javascript&quot;&gt;\n/* &lt;![CDATA[ */!function(){try{var t=&quot;currentScript&quot;in document?document.currentScript:function(){for(var t=document.getElementsByTagName(&quot;script&quot;),e=t.length;e--;)if(t[e].getAttribute(&quot;cf-hash&quot;))return t[e]}();if(t&amp;&amp;t.previousSibling){var e,r,n,i,c=t.previousSibling,a=c.getAttribute(&quot;data-cfemail&quot;);if(a){for(e=&quot;&quot;,r=parseInt(a.substr(0,2),16),n=2;a.length-n;n+=2)i=parseInt(a.substr(n,2),16)^r,e+=String.fromCharCode(i);e=document.createTextNode(e),c.parentNode.replaceChild(e,c)}}}catch(u){}}();/* ]]&gt; */&lt;/script&gt;\nFormat settings, CABAC         : Yes\nFormat settings, ReFrames      : 4 frames\nCodec ID                       : V_MPEG4/ISO/AVC\nDuration                       : 49mn 53s\nBit rate                       : 3 999 Kbps\nWidth                          : 1 280 pixels\nHeight                         : 720 pixels\nDisplay aspect ratio           : 16:9\nFrame rate mode                : Constant\nFrame rate                     : 60.000 fps\nColor space                    : YUV\nChroma subsampling             : 4:2:0\nBit depth                      : 8 bits\nScan type                      : Progressive\nBits/(Pixel*Frame)             : 0.072\nStream size                    : 1.36 GiB (89%)\nWriting library                : x264 core 133 r2334 a3ac64b\nLanguage                       : English\nDefault                        : Yes\nForced                         : No\n\nAudio\nID                             : 2\nFormat                         : AC-3\nFormat/Info                    : Audio Coding 3\nMode extension                 : CM (complete main)\nFormat settings, Endianness    : Big\nCodec ID                       : A_AC3\nDuration                       : 49mn 53s\nBit rate mode                  : Constant\nBit rate                       : 384 Kbps\nChannel(s)                     : 2 channels\nChannel positions              : Front: L R\nSampling rate                  : 48.0 KHz\nBit depth                      : 16 bits\nCompression mode               : Lossy\nDelay relative to video        : 25ms\nStream size                    : 137 MiB (9%)\nLanguage                       : English\nDefault                        : Yes\nForced                         : No","torrent":{"xt":"urn:btih:4ac141b12f5e0ace0d7639dd98c62e74656dac98","amp;dn":"BBC.South.Pacific.1of6.HDTV.720p.Legendado.PT-BR.mkv","amp;tr":["udp%3A%2F%2Ftracker.openbittorrent.com%3A80","udp%3A%2F%2Fopen.demonii.com%3A1337","udp%3A%2F%2Ftracker.coppersurfer.tk%3A6969","udp%3A%2F%2Fexodus.desync.com%3A6969"],"infoHash":"4ac141b12f5e0ace0d7639dd98c62e74656dac98","infoHashBuffer":{"type":"Buffer","data":[74,193,65,177,47,94,10,206,13,118,57,221,152,198,46,116,101,109,172,152]},"announce":[],"urlList":[]}}